<?xml version="1.0" encoding="UTF-8"?>
<svg width="190px" height="24px" viewBox="0 0 190 24" version="1.1" xmlns="http://www.w3.org/2000/svg" xmlns:xlink="http://www.w3.org/1999/xlink">
    <!-- Generator: Sketch 49.1 (51147) - http://www.bohemiancoding.com/sketch -->
    <title>Page 1</title>
    <desc>Created with Sketch.</desc>
    <defs>
        <polygon id="path-1" points="0 0.363439655 22.3115888 0.363439655 22.3115888 15.5077716 0 15.5077716"></polygon>
        <polygon id="path-3" points="0 0.180342241 22.3115888 0.180342241 22.3115888 9.0301181 0 9.0301181"></polygon>
    </defs>
    <g id="Page-1" stroke="none" stroke-width="1" fill="none" fill-rule="evenodd">
        <g id="cheesecake-logo" transform="translate(0.000000, -8.000000)">
            <g id="Page-1" transform="translate(0.000000, 8.000000)">
                <g id="Group-3" transform="translate(0.000000, 0.041814)">
                    <mask id="mask-2" fill="white">
                        <use xlink:href="#path-1"></use>
                    </mask>
                    <g id="Clip-2"></g>
                    <path d="M-4.05174738e-05,1.86521121 L18.9944422,7.67254741 L15.6772957,8.68669397 L-4.05174738e-05,3.89350431 L-4.05174738e-05,5.92179741 L12.3601491,9.70084052 L9.04300259,10.7149871 L-4.05174738e-05,7.95009052 L-4.05174738e-05,9.97838362 L5.72585603,11.7291336 L-4.05174738e-05,13.4798836 L-4.05174738e-05,15.5077716 L22.3115888,8.68669397 L22.3115888,7.76897845 C22.3115888,7.10895259 21.8804853,6.52631466 21.2496319,6.33345259 L1.93951983,0.430090517 C0.975209483,0.134719828 -4.05174738e-05,0.856737069 -4.05174738e-05,1.86521121" id="Fill-1" fill="#FFFFFF" mask="url(#mask-2)"></path>
                </g>
                <g id="Group-6" transform="translate(0.000000, 10.576297)">
                    <mask id="mask-4" fill="white">
                        <use xlink:href="#path-3"></use>
                    </mask>
                    <g id="Clip-5"></g>
                    <polygon id="Fill-4" fill="#FFFFFF" mask="url(#mask-4)" points="-4.05174738e-05 9.0301181 22.3115888 2.20904052 22.3115888 0.180342241 -4.05174738e-05 7.001825"></polygon>
                </g>
                <path d="M1.93956034,23.06995 L21.2496724,17.1665879 C21.8805259,16.9733207 22.3116293,16.3910879 22.3116293,15.7310621 L22.3116293,14.8133466 L0,21.6348293 C0,22.6433034 0.97525,23.3649155 1.93956034,23.06995" id="Fill-7" fill="#FFFFFF"></path>
                <path d="M36.1477405,17.3140707 C37.6691629,17.3140707 38.9207405,16.4575362 39.5337664,15.2825362 L41.5952836,16.6042086 C40.5892405,18.391019 38.7242319,19.6146397 36.0496888,19.6146397 C31.3136284,19.6146397 28.9425595,16.4595621 29.0065767,11.8900276 C29.070594,7.33710517 31.4315336,4.19701897 36.0496888,4.16501034 C38.7242319,4.14637241 40.5892405,5.38903621 41.5952836,7.17544138 L39.5337664,8.49711379 C38.9207405,7.32251897 37.6691629,6.46557931 36.1477405,6.46557931 C33.0558698,6.46557931 31.7795767,9.54286379 31.7795767,11.9147431 C31.7795767,14.2862172 33.0558698,17.3140707 36.1477405,17.3140707" id="Fill-9" fill="#FFFFFF"></path>
                <path d="M43.3154026,3.78054224 L45.7695319,3.78054224 L45.7695319,9.36017155 C46.4319888,8.65030948 47.5607991,7.96475776 49.2787302,7.96475776 C51.9285578,7.96475776 53.155825,9.48212845 53.155825,12.3215767 L53.155825,19.3703612 L50.6769802,19.3703612 L50.6769802,12.5663009 C50.6769802,11.0242147 50.1129802,10.2410164 48.3950491,10.2410164 C47.2909543,10.2410164 46.3096267,10.7308698 45.7695319,11.2932491 L45.7695319,19.3703612 L43.3154026,19.3703612 L43.3154026,3.78054224 Z" id="Fill-11" fill="#FFFFFF"></path>
                <path d="M62.2730552,12.7622017 C62.2977707,12.6151241 62.2977707,12.4437362 62.2977707,12.3460897 C62.2977707,10.8530293 61.365469,9.97177931 60.0154345,9.97177931 C58.2484776,9.97177931 57.5369948,11.1954 57.4385379,12.7622017 L62.2730552,12.7622017 Z M63.1810466,16.4087534 L64.3584776,18.0237707 C63.5736586,18.8807103 62.0275207,19.6395983 60.260969,19.6395983 C56.5062362,19.6395983 54.9357879,17.1919517 54.9357879,13.789719 C54.9357879,10.5835897 56.6042879,7.96455517 60.0154345,7.96455517 C63.3038138,7.96455517 64.6044172,10.3384603 64.6044172,12.737081 C64.6044172,13.3002707 64.5553914,14.1077793 64.4326241,14.5729172 L57.4385379,14.5729172 C57.487969,16.3597276 58.3712448,17.5100121 60.260969,17.5100121 C61.2179862,17.5100121 62.322081,17.1676414 63.1810466,16.4087534 Z" id="Fill-13" fill="#FFFFFF"></path>
                <path d="M73.7359905,12.7622017 C73.760706,12.6151241 73.760706,12.4437362 73.760706,12.3460897 C73.760706,10.8530293 72.8279991,9.97177931 71.4779647,9.97177931 C69.7110078,9.97177931 68.9999302,11.1954 68.9014733,12.7622017 L73.7359905,12.7622017 Z M74.6439819,16.4087534 L75.8214129,18.0237707 C75.0361888,18.8807103 73.490456,19.6395983 71.7234991,19.6395983 C67.9691716,19.6395983 66.3983181,17.1919517 66.3983181,13.789719 C66.3983181,10.5835897 68.0672233,7.96455517 71.4779647,7.96455517 C74.7667491,7.96455517 76.0669474,10.3384603 76.0669474,12.737081 C76.0669474,13.3002707 76.0179216,14.1077793 75.8955595,14.5729172 L68.9014733,14.5729172 C68.9509043,16.3597276 69.8341802,17.5100121 71.7234991,17.5100121 C72.6805164,17.5100121 73.7850164,17.1676414 74.6439819,16.4087534 Z" id="Fill-15" fill="#FFFFFF"></path>
                <path d="M84.8604448,11.048525 C84.2470138,10.3633784 83.3147121,9.84961983 82.1121603,9.84961983 C80.8111517,9.84961983 80.2714621,10.4857405 80.2714621,11.2442233 C80.2714621,11.8564388 80.5903328,12.3215767 81.4740138,12.517275 L83.3637379,12.9576974 C85.4981862,13.4471457 86.5046345,14.5484043 86.5046345,16.1638267 C86.5046345,17.9749474 85.204031,19.6393957 81.8419103,19.6393957 C79.4615224,19.6393957 78.1122983,18.6114733 77.4251259,17.7545336 L78.8728069,16.2618784 C79.4866431,16.9717405 80.3452034,17.7545336 81.9156517,17.7545336 C83.1425138,17.7545336 84.0014793,17.2898009 84.0014793,16.359525 C84.0014793,15.699094 83.4861,15.3072922 82.5781086,15.0868784 L80.6397638,14.5974302 C78.7500397,14.1322922 77.7930224,13.0067233 77.7930224,11.4646371 C77.7930224,9.84961983 78.9712638,7.96475776 82.1854966,7.96475776 C84.32035,7.96475776 85.5719276,8.79657672 86.2838155,9.58018017 L84.8604448,11.048525 Z" id="Fill-17" fill="#FFFFFF"></path>
                <path d="M95.0516655,12.7622017 C95.076381,12.6151241 95.076381,12.4437362 95.076381,12.3460897 C95.076381,10.8530293 94.1436741,9.97177931 92.7940448,9.97177931 C91.0274931,9.97177931 90.3156052,11.1954 90.2175534,12.7622017 L95.0516655,12.7622017 Z M95.9596569,16.4087534 L97.1374931,18.0237707 C96.3526741,18.8807103 94.8065362,19.6395983 93.0395793,19.6395983 C89.2848466,19.6395983 87.7143983,17.1919517 87.7143983,13.789719 C87.7143983,10.5835897 89.3833034,7.96455517 92.7940448,7.96455517 C96.0824241,7.96455517 97.3830276,10.3384603 97.3830276,12.737081 C97.3830276,13.3002707 97.3335966,14.1077793 97.2116397,14.5729172 L90.2175534,14.5729172 C90.2665793,16.3597276 91.1502603,17.5100121 93.0395793,17.5100121 C93.9965966,17.5100121 95.1010966,17.1676414 95.9596569,16.4087534 Z" id="Fill-19" fill="#FFFFFF"></path>
                <path d="M104.170233,7.96463621 C106.158009,7.96463621 107.704147,8.77255 108.514086,10.3385414 L106.747129,11.5868776 C106.23175,10.6817224 105.470836,10.1432483 104.342431,10.1432483 C102.354655,10.1432483 101.618457,11.6849293 101.618457,13.7898 C101.618457,15.8950759 102.354655,17.4367569 104.342431,17.4367569 C105.470836,17.4367569 106.255655,16.8982828 106.77144,16.0174379 L108.514086,17.2649638 C107.728862,18.8317655 106.158009,19.6392741 104.170233,19.6392741 C100.587698,19.6392741 99.0905862,17.0206448 99.0905862,13.7898 C99.0905862,10.607981 100.587698,7.96463621 104.170233,7.96463621" id="Fill-21" fill="#FFFFFF"></path>
                <path d="M114.284106,17.7055888 C115.363485,17.7055888 116.345218,17.1918302 116.958649,16.5557095 L116.958649,14.1570888 L115.412511,14.3775026 C113.620839,14.6218216 112.615201,15.1602957 112.615201,16.286675 C112.615201,17.2165457 113.179201,17.7055888 114.284106,17.7055888 Z M117.105727,19.3700371 L117.105727,18.0240543 C116.394244,18.8315629 115.216003,19.6394767 113.449046,19.6394767 C111.412649,19.6394767 110.08733,18.4154509 110.08733,16.4329422 C110.08733,14.0590371 112.173563,13.0068043 115.387796,12.7620802 L116.958649,12.5902871 L116.958649,11.7094422 C116.958649,10.5834681 116.46758,9.94734741 114.897537,9.94734741 C113.523192,9.94734741 112.86033,10.4367957 112.86033,11.1466578 L112.86033,11.6851319 L110.700356,11.6851319 C110.676451,11.4400026 110.651735,11.1713733 110.651735,10.926244 C110.651735,9.18886466 112.222589,7.96443362 115.044209,7.96443362 C117.768589,7.96443362 119.412373,9.13983879 119.412373,11.6851319 L119.412373,19.3700371 L117.105727,19.3700371 Z" id="Fill-23" fill="#FFFFFF"></path>
                <polygon id="Fill-25" fill="#FFFFFF" points="128.841019 19.3701991 125.626381 14.1568457 124.006907 15.7232422 124.006907 19.3701991 121.552778 19.3701991 121.552778 3.78038017 124.006907 3.78038017 124.006907 12.8108629 128.693941 8.209725 131.736381 8.209725 127.369028 12.4437767 131.614019 19.3701991"></polygon>
                <path d="M139.349368,12.7622017 C139.374084,12.6151241 139.374084,12.4437362 139.374084,12.3460897 C139.374084,10.8530293 138.441377,9.97177931 137.092153,9.97177931 C135.325196,9.97177931 134.613308,11.1954 134.515256,12.7622017 L139.349368,12.7622017 Z M140.257359,16.4087534 L141.435196,18.0237707 C140.649972,18.8807103 139.103834,19.6395983 137.336877,19.6395983 C133.582954,19.6395983 132.012506,17.1919517 132.012506,13.789719 C132.012506,10.5835897 133.680601,7.96455517 137.092153,7.96455517 C140.380127,7.96455517 141.680325,10.3384603 141.680325,12.737081 C141.680325,13.3002707 141.631704,14.1077793 141.508532,14.5729172 L134.515256,14.5729172 C134.564282,16.3597276 135.447153,17.5100121 137.336877,17.5100121 C138.294299,17.5100121 139.398394,17.1676414 140.257359,16.4087534 Z" id="Fill-27" fill="#FFFFFF"></path>
                <polygon id="Fill-29" fill="#FFFFFF" points="156.779318 17.1676819 156.779318 19.3701991 147.258577 19.3701991 147.258577 3.68232845 149.93312 3.68232845 149.93312 17.1676819"></polygon>
                <path d="M162.278034,17.7055888 C163.357414,17.7055888 164.339147,17.1918302 164.952983,16.5557095 L164.952983,14.1570888 L163.40644,14.3775026 C161.615578,14.6218216 160.609129,15.1602957 160.609129,16.286675 C160.609129,17.2165457 161.173129,17.7055888 162.278034,17.7055888 Z M165.10006,19.3700371 L165.10006,18.0240543 C164.388172,18.8315629 163.210741,19.6394767 161.443784,19.6394767 C159.406578,19.6394767 158.081664,18.4154509 158.081664,16.4329422 C158.081664,14.0590371 160.167491,13.0068043 163.382534,12.7620802 L164.952983,12.5902871 L164.952983,11.7094422 C164.952983,10.5834681 164.462319,9.94734741 162.891466,9.94734741 C161.517121,9.94734741 160.854664,10.4367957 160.854664,11.1466578 L160.854664,11.6851319 L158.695095,11.6851319 C158.670784,11.4400026 158.646069,11.1713733 158.646069,10.926244 C158.646069,9.18886466 160.216517,7.96443362 163.038948,7.96443362 C165.762517,7.96443362 167.406302,9.13983879 167.406302,11.6851319 L167.406302,19.3700371 L165.10006,19.3700371 Z" id="Fill-31" fill="#FFFFFF"></path>
                <path d="M174.18512,10.2411784 C172.884516,10.2411784 172.148318,10.8282733 171.780016,11.2934112 L171.780016,16.1887043 C172.197749,16.7510836 173.031594,17.362894 174.18512,17.362894 C176.41843,17.362894 177.006741,15.8212129 177.006741,13.7653681 C177.006741,11.7095233 176.369404,10.2411784 174.18512,10.2411784 Z M171.780016,9.13991983 C172.319706,8.52770431 173.178672,7.96451466 174.749525,7.96451466 C178.013189,7.96451466 179.534611,10.1674371 179.534611,13.7653681 C179.534611,17.2895578 177.914732,19.6395578 174.749525,19.6395578 C173.006878,19.6395578 171.951809,19.0030319 171.338784,18.366506 L170.602585,19.3701181 L169.326292,19.3701181 L169.326292,3.78070431 L171.780016,3.78070431 L171.780016,9.13991983 Z" id="Fill-33" fill="#FFFFFF"></path>
                <path d="M188.006888,11.048525 C187.393457,10.3633784 186.461155,9.84961983 185.258603,9.84961983 C183.958,9.84961983 183.417905,10.4857405 183.417905,11.2442233 C183.417905,11.8564388 183.737586,12.3215767 184.620457,12.517275 L186.510181,12.9576974 C188.645034,13.4471457 189.651078,14.5484043 189.651078,16.1638267 C189.651078,17.9749474 188.350879,19.6393957 184.988759,19.6393957 C182.608776,19.6393957 181.258741,18.6114733 180.571569,17.7545336 L182.019655,16.2618784 C182.632681,16.9717405 183.491647,17.7545336 185.0625,17.7545336 C186.289362,17.7545336 187.148328,17.2898009 187.148328,16.359525 C187.148328,15.699094 186.632543,15.3072922 185.724957,15.0868784 L183.786207,14.5974302 C181.896888,14.1322922 180.939871,13.0067233 180.939871,11.4646371 C180.939871,9.84961983 182.117707,7.96475776 185.33194,7.96475776 C187.466793,7.96475776 188.719181,8.79657672 189.430664,9.58018017 L188.006888,11.048525 Z" id="Fill-35" fill="#FFFFFF"></path>
            </g>
        </g>
    </g>
</svg>